<svg width="73" height="24" viewBox="0 0 73 24" fill="none" xmlns="http://www.w3.org/2000/svg">
<path d="M3.68248 0.192871L0 8.55599H2.39748L3.07695 6.88131H7.02698L7.70293 8.55599H10.1532L6.47426 0.192871H3.68248ZM5.04492 2.13922L6.24895 5.06564H3.83738L5.04492 2.13922V2.13922Z" fill="white"/>
<path d="M10.4067 8.55453V0.191406L13.8137 0.203769L15.7953 5.59578L17.7294 0.191406H21.1092V8.55453H18.9687V2.39223L16.6997 8.55453H14.8225L12.5472 2.39223V8.55453H10.4067Z" fill="white"/>
<path d="M22.574 8.55453V0.191406H29.5587V2.06211H24.737V3.49264H29.4461V5.2533H24.737V6.73885H29.5587V8.55453H22.574Z" fill="white"/>
<path d="M30.7971 0.192871V8.55599H32.9376V5.58488H33.8389L36.4053 8.55599H39.0211L36.2047 5.47485C37.3605 5.37957 38.5529 4.41054 38.5529 2.90608C38.5529 1.14618 37.1387 0.192871 35.5604 0.192871H30.7971V0.192871ZM32.9376 2.06357H35.3844C35.9713 2.06357 36.3983 2.51203 36.3983 2.9439C36.3983 3.49951 35.8451 3.82423 35.4161 3.82423H32.9376V2.06357V2.06357Z" fill="white"/>
<path d="M41.6128 8.55453H39.4272V0.191406H41.6128V8.55453Z" fill="white"/>
<path d="M46.7949 8.55453H46.3232C44.0406 8.55453 42.6548 6.79801 42.6548 4.40736C42.6548 1.95765 44.0251 0.191406 46.9076 0.191406H49.2734V2.17214H46.8211C45.651 2.17214 44.8234 3.06411 44.8234 4.42799C44.8234 6.04761 45.7697 6.72785 47.1329 6.72785H47.6962L46.7949 8.55453Z" fill="white"/>
<path d="M51.4525 0.192871L47.77 8.55599H50.1675L50.847 6.88131H54.797L55.4729 8.55599H57.9232L54.2443 0.192871H51.4525ZM52.8149 2.13922L54.019 5.06564H51.6074L52.8149 2.13922Z" fill="white"/>
<path d="M58.1733 8.55453V0.191406H60.8947L64.3695 5.44587V0.191406H66.51V8.55453H63.8766L60.3138 3.16252V8.55453H58.1733Z" fill="white"/>
<path d="M15.5891 23.1899V14.8268H22.5738V16.6975H17.7521V18.128H22.4612V19.8887H17.7521V21.3742H22.5738V23.1899H15.5891Z" fill="white"/>
<path d="M49.8142 23.1899V14.8268H56.7989V16.6975H51.9772V18.128H56.6638V19.8887H51.9772V21.3742H56.7989V23.1899H49.8142Z" fill="white"/>
<path d="M22.8449 23.1899L26.2457 19.0599L22.7639 14.8268H25.4606L27.5342 17.4437L29.6149 14.8268H32.206L28.7699 19.0083L32.177 23.1899H29.4807L27.4673 20.6142L25.5029 23.1899H22.8449Z" fill="white"/>
<path d="M32.4312 14.8282V23.1914H34.628V20.5504H36.8811C38.7876 20.5504 40.2327 19.5624 40.2327 17.6412C40.2327 16.0496 39.0993 14.8282 37.1592 14.8282H32.4312V14.8282ZM34.628 16.7196H37.0008C37.6167 16.7196 38.057 17.0883 38.057 17.6824C38.057 18.2406 37.6189 18.6453 36.9938 18.6453H34.628V16.7196Z" fill="white"/>
<path d="M41.1619 14.8268V23.1899H43.3023V20.2188H44.2036L46.7701 23.1899H49.3858L46.5694 20.1088C47.7253 20.0135 48.9176 19.0444 48.9176 17.54C48.9176 15.7801 47.5034 14.8268 45.9251 14.8268H41.1619V14.8268ZM43.3023 16.6975H45.7491C46.3361 16.6975 46.763 17.1459 46.763 17.5778C46.763 18.1334 46.2098 18.4581 45.7808 18.4581H43.3023V16.6975V16.6975Z" fill="white"/>
<path d="M57.7903 23.1899V21.3742H62.0741C62.708 21.3742 62.9824 21.0397 62.9824 20.6727C62.9824 20.3211 62.7088 19.9657 62.0741 19.9657H60.1383C58.4557 19.9657 57.5186 18.9643 57.5186 17.4609C57.5186 16.1199 58.3767 14.8268 60.8771 14.8268H65.0455L64.1442 16.7085H60.5392C59.8501 16.7085 59.6379 17.0617 59.6379 17.399C59.6379 17.7457 59.9001 18.128 60.4265 18.128H62.4543C64.3301 18.128 65.144 19.1673 65.144 20.5283C65.144 21.9915 64.237 23.1899 62.3522 23.1899H57.7903Z" fill="white"/>
<path d="M65.6463 23.1899V21.3742H69.9301C70.5639 21.3742 70.8384 21.0397 70.8384 20.6727C70.8384 20.3211 70.5648 19.9657 69.9301 19.9657H67.9943C66.3116 19.9657 65.3745 18.9643 65.3745 17.4609C65.3745 16.1199 66.2327 14.8268 68.7331 14.8268H72.9014L72.0002 16.7085H68.3951C67.706 16.7085 67.4939 17.0617 67.4939 17.399C67.4939 17.7457 67.756 18.128 68.2825 18.128H70.3103C72.1861 18.128 73 19.1673 73 20.5283C73 21.9915 72.093 23.1899 70.2082 23.1899H65.6463Z" fill="white"/>
</svg>
