<svg width="36" height="24" viewBox="0 0 36 24" fill="none" xmlns="http://www.w3.org/2000/svg">
<path fill-rule="evenodd" clip-rule="evenodd" d="M11.1453 18.7538L11.0809 18.8171C10.0486 19.8686 8.85326 20.4263 7.62269 20.4263C5.05364 20.4263 3.18806 18.498 3.18806 15.8376C3.18806 13.1825 5.05364 11.2531 7.62269 11.2531C8.85326 11.2531 10.0486 11.8118 11.0809 12.8655L11.1453 12.9303L12.7976 10.9314L12.7535 10.8775C11.3803 9.25315 9.73053 8.46355 7.7031 8.46355C5.66996 8.46355 3.80906 9.14836 2.46902 10.3826C1.01174 11.7205 0.243408 13.6058 0.243408 15.8382C0.243408 18.071 1.01174 19.961 2.46902 21.2984C3.80906 22.5389 5.66944 23.219 7.7031 23.219C9.73053 23.219 11.3803 22.4294 12.7535 20.8045L12.7976 20.7542L11.1453 18.7538V18.7538ZM14.4676 22.9456H17.3874V8.6939H14.4676V22.9456V22.9456ZM28.8246 19.8474C28.0444 20.3216 27.3201 20.5607 26.668 20.5607C25.7248 20.5607 25.2979 20.0627 25.2979 18.9535V11.3906H28.2726V8.70687H25.2979V4.27173L22.4368 5.80371V8.70687H19.9683V11.3906H22.4368V19.4365C22.4368 21.6268 23.7348 23.1241 25.6745 23.165C26.9897 23.1905 27.7829 22.7983 28.2643 22.5108L28.2939 22.4911L28.9958 19.7426L28.8246 19.8474V19.8474ZM31.2412 22.9456H34.1635V8.6939H31.2412V22.9456V22.9456Z" fill="white"/>
<path fill-rule="evenodd" clip-rule="evenodd" d="M35.8656 6.19488C33.1985 2.41705 28.7696 0.16394 24.2634 0.16394C19.7582 0.16394 15.3277 2.41757 12.6653 6.19488L12.5283 6.38891H15.8875L15.9233 6.34845C18.2101 3.99106 21.1947 2.74285 24.2634 2.74285C27.332 2.74285 30.3151 3.99106 32.6055 6.34845L32.6444 6.38891H36L35.8656 6.19488Z" fill="white"/>
</svg>
