<svg width="20" height="22" viewBox="0 0 20 22" fill="none" xmlns="http://www.w3.org/2000/svg">
<path d="M19.7534 0.600021L16.5203 0.195708C16.4246 0.179536 16.3289 0.211879 16.2907 0.244224L14.9133 1.76444C14.8176 1.86148 14.7985 1.99086 14.8367 2.10407C14.875 2.21727 14.7603 2.31431 14.6263 2.29814L13.4976 2.08789C13.3254 2.05555 13.1341 2.10407 13.0194 2.23345L8.54273 7.08522C8.46618 7.18223 8.31316 7.21458 8.17923 7.16608L6.47658 6.51914C6.32353 6.45449 6.15136 6.47064 6.01744 6.5515L5.15655 7.05286C5.02264 7.13372 4.83133 7.14987 4.67828 7.08522L4.2574 6.90729C3.98957 6.79408 3.66435 6.9235 3.58782 7.16608L3.28173 8.31433C3.2052 8.58926 3.33912 8.8642 3.62608 9.00977L4.27653 9.34936L6.3618 10.4329L7.37575 10.9666C7.6627 11.1122 8.0262 11.0798 8.27488 10.9019L9.9775 9.64044C10.1114 9.54343 10.3219 9.51108 10.4749 9.59194L10.9915 9.81837C11.1637 9.89923 11.3741 9.86687 11.508 9.75366L12.3689 9.07442C12.5028 8.96121 12.7132 8.94506 12.8663 9.00977L14.1481 9.51108C14.3394 9.59194 14.569 9.54343 14.7029 9.39786L15.2959 8.75098L19.7916 3.88304C20.0021 3.65663 19.8682 3.31701 19.5238 3.25232L18.5291 3.05824C18.3186 3.0259 18.2229 2.79949 18.376 2.6701L19.9256 1.03668C20.0786 0.842606 19.983 0.632367 19.7534 0.600021Z" fill="white"/>
<path d="M4.92682 10.4007C4.83117 10.3521 4.73551 10.433 4.77377 10.5138L5.25205 11.5812C5.29031 11.6621 5.29031 11.743 5.27118 11.8238L4.8503 13.2147C4.83117 13.3117 4.86943 13.4087 4.94595 13.4572L6.1512 14.2497C6.26599 14.3144 6.41903 14.3144 6.51469 14.2335L7.77729 13.2955C7.85383 13.247 7.94949 13.2147 8.02603 13.1985L9.46087 13.0691C9.55652 13.0529 9.59473 12.9397 9.49907 12.8912L4.92682 10.4007Z" fill="white"/>
<path d="M4.50618 13.9908C4.42966 13.9423 4.31487 13.9262 4.21922 13.9585L3.20528 14.379C3.14789 14.3951 3.10963 14.4437 3.07137 14.4922L0.909583 19.0043C0.909583 19.0205 0.909583 19.0204 0.909583 19.0367C0.928714 19.0528 0.947844 19.069 0.986104 19.069L1.4835 18.9073C1.50264 18.9073 1.52176 18.9073 1.54089 18.9073C1.56002 18.9234 1.57916 18.9558 1.56003 18.9719L0.0104278 21.1229C-0.0278339 21.1714 0.0486913 21.2199 0.0869527 21.1714L5.69229 16.4167C5.74968 16.3682 5.76882 16.3197 5.78795 16.255L5.90273 15.0258C5.90273 14.945 5.86447 14.8803 5.80708 14.8318L4.50618 13.9908Z" fill="white"/>
</svg>
